<svg width="100" height="27" viewBox="0 0 100 27" fill="none" xmlns="http://www.w3.org/2000/svg">
<path d="M23.434 0.774V27H20.266C19.798 27 19.402 26.928 19.078 26.784C18.766 26.628 18.454 26.364 18.142 25.992L5.776 10.35C5.824 10.818 5.854 11.274 5.866 11.718C5.89 12.15 5.902 12.558 5.902 12.942V27H0.538V0.774H3.742C4.006 0.774 4.228 0.786 4.408 0.809999C4.588 0.833999 4.75 0.881999 4.894 0.954C5.038 1.014 5.176 1.104 5.308 1.224C5.44 1.344 5.59 1.506 5.758 1.71L18.232 17.46C18.172 16.956 18.13 16.47 18.106 16.002C18.082 15.522 18.07 15.072 18.07 14.652V0.774H23.434ZM47.7824 16.974L45.3524 9.792C45.1724 9.336 44.9804 8.802 44.7764 8.19C44.5724 7.566 44.3684 6.894 44.1644 6.174C43.9844 6.906 43.7924 7.584 43.5884 8.208C43.3844 8.832 43.1924 9.372 43.0124 9.828L40.6004 16.974H47.7824ZM57.4484 27H52.7324C52.2044 27 51.7784 26.88 51.4544 26.64C51.1304 26.388 50.8844 26.07 50.7164 25.686L49.1684 21.114H39.1964L37.6484 25.686C37.5164 26.022 37.2764 26.328 36.9284 26.604C36.5924 26.868 36.1724 27 35.6684 27H30.9164L41.0684 0.774H47.2964L57.4484 27ZM86.2624 0.774L75.7504 27H70.2424L59.7304 0.774H64.6264C65.1544 0.774 65.5804 0.899999 65.9044 1.152C66.2284 1.392 66.4744 1.704 66.6424 2.088L71.7184 16.128C71.9584 16.74 72.1924 17.412 72.4204 18.144C72.6484 18.864 72.8644 19.62 73.0684 20.412C73.2364 19.62 73.4224 18.864 73.6264 18.144C73.8424 17.412 74.0704 16.74 74.3104 16.128L79.3504 2.088C79.4824 1.752 79.7164 1.452 80.0524 1.188C80.4004 0.912 80.8264 0.774 81.3304 0.774H86.2624ZM99.8502 27H93.7302V0.774H99.8502V27Z" fill="white"/>
</svg>
